<?xml version="1.0" standalone="no"?>
<!DOCTYPE svg PUBLIC "-//W3C//DTD SVG 20010904//EN"
 "http://www.w3.org/TR/2001/REC-SVG-20010904/DTD/svg10.dtd">
<svg version="1.0" xmlns="http://www.w3.org/2000/svg"
 width="600.000000pt" height="450.000000pt"
 preserveAspectRatio="xMidYMid meet">
<metadata>
Created by potrace 1.13, written by Peter Selinger 2001-2015
</metadata>

<g transform="translate(0.000000,450.000000) scale(0.100000,-0.100000)"
fill="#000000" stroke="none">
<path d="M2865 4493 c-344 -27 -642 -175 -748 -370 -15 -29 -55 -131 -88 -228
-75 -221 -84 -297 -69 -564 11 -184 21 -234 57 -273 21 -24 50 -23 63 1 5 11
10 76 10 145 0 171 14 258 64 400 24 68 51 166 60 223 17 113 53 212 92 258
l25 30 -14 -30 c-35 -72 -69 -206 -77 -300 -7 -83 -14 -113 -44 -177 -56 -122
-68 -202 -60 -392 8 -186 5 -199 -70 -260 -25 -21 -46 -45 -46 -54 0 -58 102
-200 155 -216 12 -3 57 7 105 24 100 35 138 37 172 10 30 -23 42 -51 63 -143
18 -81 46 -138 80 -165 l25 -20 -20 -25 c-34 -43 -53 -97 -40 -112 18 -21 47
-27 71 -15 19 11 21 17 14 77 l-7 66 33 -7 c18 -3 34 -7 35 -9 2 -2 -3 -25
-12 -52 -25 -85 -2 -117 79 -107 61 7 69 46 31 140 -4 8 7 12 36 12 36 0 41
-2 35 -17 -18 -42 -28 -114 -17 -125 13 -13 110 -14 123 -1 11 11 -6 110 -22
130 -9 11 -1 13 47 13 33 0 54 -4 48 -8 -20 -13 -34 -50 -34 -92 0 -35 4 -42
28 -51 17 -7 40 -8 62 -2 30 7 35 13 38 39 2 17 -3 49 -11 72 -14 41 -14 42 8
42 12 0 36 3 52 6 l29 6 0 -74 -1 -73 42 1 c74 1 87 31 57 125 l-16 49 65 70
c56 58 69 80 86 137 26 87 43 110 90 124 31 9 50 8 116 -11 66 -19 85 -20 116
-11 96 29 165 217 101 274 -9 8 -33 22 -53 30 -66 27 -79 56 -79 171 0 63 -6
125 -16 161 -22 80 -22 95 -1 109 15 9 21 7 33 -9 11 -15 14 -51 12 -171 -2
-129 1 -156 15 -178 37 -55 80 -19 122 102 63 180 60 338 -10 571 -50 166 -82
237 -155 347 -56 83 -204 225 -284 273 -146 88 -356 124 -601 104z m-274
-1037 c149 -27 189 -62 189 -165 0 -104 -12 -131 -90 -205 -79 -74 -162 -126
-203 -126 -58 0 -122 53 -156 130 -27 62 -43 196 -31 263 21 107 103 136 291
103z m903 -26 c87 -44 105 -94 86 -242 -21 -169 -39 -193 -150 -193 -57 0 -72
4 -120 34 -175 107 -251 231 -204 328 11 20 33 45 49 55 92 53 252 61 339 18z
m-518 -326 c113 -176 156 -300 134 -381 -13 -43 -49 -83 -76 -83 -8 0 -31 28
-51 61 -63 102 -73 106 -108 42 -40 -73 -81 -68 -76 9 2 47 74 326 92 361 16
31 30 47 40 47 5 0 25 -25 45 -56z"/>
<path d="M10 3835 c-19 -23 -7 -223 20 -313 45 -154 166 -391 303 -597 230
-344 550 -680 966 -1013 470 -377 883 -622 1521 -902 344 -151 644 -260 1095
-399 l160 -49 3 52 c6 101 -17 150 -90 187 -47 24 -191 76 -553 199 -317 108
-481 175 -735 301 -555 274 -1030 580 -1222 788 -56 60 -85 101 -73 101 4 0
50 -38 103 -83 227 -196 608 -454 937 -636 283 -157 551 -269 1070 -444 393
-134 492 -161 537 -151 72 15 168 75 168 104 0 5 -33 19 -72 30 -552 159
-1138 389 -1684 663 -623 312 -1299 818 -1757 1316 -230 249 -539 636 -631
788 -43 73 -49 78 -66 58z"/>
<path d="M5914 3763 c-100 -156 -337 -453 -565 -708 -400 -449 -1000 -923
-1579 -1247 -133 -75 -500 -259 -639 -321 -50 -22 -81 -41 -75 -46 5 -5 57
-30 115 -56 l107 -47 127 62 c305 151 803 476 1065 694 126 106 129 107 102
69 -55 -78 -204 -210 -377 -334 -176 -127 -539 -342 -769 -456 -53 -26 -96
-50 -96 -53 0 -3 62 -27 138 -54 l137 -49 100 51 c703 358 1434 953 1861 1517
202 266 386 625 424 824 15 83 13 216 -4 231 -12 9 -25 -3 -72 -77z m-154
-504 c-70 -178 -297 -487 -553 -756 -95 -99 -245 -228 -255 -218 -3 3 69 81
159 173 290 293 477 530 628 795 18 31 34 57 37 57 2 0 -5 -23 -16 -51z"/>
<path d="M3602 2647 c-33 -19 -99 -121 -117 -181 -9 -28 -24 -108 -35 -179
-11 -70 -26 -140 -34 -156 -17 -32 -64 -74 -108 -97 -28 -14 -29 -14 -25 3 23
84 16 103 -43 103 -54 0 -95 -39 -85 -83 13 -60 12 -62 -29 -65 -23 -2 -36 0
-32 7 16 25 23 101 11 117 -14 20 -100 23 -118 5 -11 -11 -12 -56 -2 -102 6
-28 6 -29 -34 -29 -23 0 -41 2 -41 4 0 2 7 20 15 39 34 81 9 114 -74 102 -25
-4 -49 -11 -52 -17 -6 -10 4 -79 16 -110 6 -15 2 -18 -21 -17 -45 1 -65 11
-54 29 5 8 10 39 10 67 0 49 -2 53 -26 59 -15 4 -43 3 -63 -2 -36 -9 -36 -9
-36 -62 1 -28 -3 -52 -7 -52 -5 0 -23 6 -41 14 -49 20 -84 68 -95 128 -29 164
-43 222 -73 303 -34 95 -80 155 -117 155 -31 0 -72 -38 -72 -67 0 -14 14 -67
32 -117 29 -85 31 -100 32 -236 1 -175 -1 -169 128 -273 51 -41 113 -96 138
-123 110 -120 130 -128 300 -113 85 8 145 7 227 -2 157 -17 174 -11 264 95 38
45 92 99 119 120 27 20 64 55 83 76 31 33 36 47 41 107 4 37 26 154 51 258 55
237 60 272 45 290 -15 18 -47 19 -78 2z"/>
<path d="M1141 1327 c-44 -14 -98 -71 -111 -116 -39 -142 40 -271 167 -271 48
0 78 20 103 71 11 21 24 39 29 39 22 0 84 -82 135 -179 75 -145 97 -207 167
-466 64 -235 86 -283 149 -338 80 -68 233 -87 328 -40 73 36 100 121 72 225
-29 102 -172 129 -210 38 -7 -16 -18 -30 -25 -30 -15 0 -76 82 -93 125 -13 33
-32 177 -32 240 0 60 17 110 55 159 l34 45 -37 6 c-66 11 -121 36 -147 66 -13
17 -45 69 -70 117 -24 48 -65 113 -90 144 -56 71 -153 144 -219 163 -57 17
-155 18 -205 2z"/>
<path d="M4609 1322 c-109 -45 -208 -141 -281 -273 -71 -132 -90 -154 -163
-190 -37 -18 -69 -38 -72 -45 -2 -7 8 -31 24 -55 27 -41 28 -48 28 -158 0 -65
-6 -139 -14 -168 -15 -60 -84 -173 -105 -173 -7 0 -19 14 -26 30 -17 41 -62
64 -108 55 -72 -13 -119 -98 -109 -198 9 -100 72 -142 212 -142 79 0 96 3 141
27 99 52 127 103 194 355 28 104 60 217 71 253 34 107 146 326 191 373 l40 42
19 -24 c10 -13 19 -29 19 -36 0 -26 51 -55 97 -55 100 0 162 65 171 179 6 89
-19 148 -78 187 -55 37 -180 45 -251 16z"/>
<path d="M2205 1134 c-88 -30 -221 -73 -295 -96 -74 -22 -139 -44 -144 -49
-13 -12 19 -56 57 -79 43 -27 145 -26 257 1 47 11 182 52 300 91 l215 71 -65
29 c-35 16 -87 42 -115 57 l-50 29 -160 -54z"/>
<path d="M2344 935 c-165 -57 -324 -115 -351 -129 -84 -42 -108 -87 -101 -192
l3 -51 145 43 c288 88 869 289 888 309 6 6 -250 125 -267 124 -9 0 -151 -47
-317 -104z"/>
<path d="M1083 851 c-43 -19 -38 -70 17 -167 16 -30 26 -54 21 -54 -21 0 -70
63 -86 109 -25 75 -47 98 -103 106 -60 8 -99 -6 -108 -40 -9 -36 12 -139 42
-205 28 -62 64 -104 109 -128 62 -33 518 -28 551 6 28 27 14 135 -29 223 -48
101 -94 152 -135 152 -78 0 -81 -64 -8 -175 10 -16 14 -28 8 -28 -18 0 -74 72
-97 125 -13 28 -30 57 -38 64 -20 16 -115 24 -144 12z"/>
<path d="M4583 849 c-49 -18 -128 -151 -153 -256 -14 -62 -6 -109 22 -124 31
-17 420 -24 490 -10 47 10 63 20 100 59 50 53 85 140 94 232 8 80 -6 95 -87
94 -73 -2 -91 -17 -123 -106 -15 -43 -71 -116 -82 -106 -1 2 13 35 32 73 36
76 42 116 19 135 -22 18 -89 24 -129 10 -31 -10 -41 -21 -66 -74 -16 -34 -46
-77 -66 -96 l-37 -35 26 45 c32 57 46 110 36 136 -8 24 -45 35 -76 23z"/>
<path d="M579 839 c-120 -18 -179 -93 -187 -235 -4 -72 -1 -89 20 -135 34 -74
69 -113 130 -143 98 -49 196 -27 288 65 75 75 77 124 2 64 -59 -46 -137 -56
-179 -22 -22 16 -15 26 36 51 88 45 121 106 107 203 -15 111 -99 170 -217 152z"/>
<path d="M5264 830 c-66 -27 -112 -121 -100 -206 9 -69 38 -109 102 -139 29
-14 54 -27 54 -30 0 -2 -7 -11 -16 -19 -10 -11 -34 -16 -73 -16 -49 0 -65 5
-99 30 -47 34 -62 37 -62 14 0 -47 67 -118 137 -144 114 -42 231 -12 300 78
104 137 72 363 -61 423 -43 20 -144 25 -182 9z"/>
</g>
</svg>
