<?xml version="1.0" standalone="no"?>
<!DOCTYPE svg PUBLIC "-//W3C//DTD SVG 20010904//EN"
 "http://www.w3.org/TR/2001/REC-SVG-20010904/DTD/svg10.dtd">
<svg version="1.0" xmlns="http://www.w3.org/2000/svg"
 width="256.000000pt" height="256.000000pt" viewBox="0 0 256.000000 256.000000"
 preserveAspectRatio="xMidYMid meet">
<metadata>
Created by potrace 1.13, written by Peter Selinger 2001-2015
</metadata>
<g transform="translate(0.000000,256.000000) scale(0.100000,-0.100000)"
fill="rgba(255, 255, 255, 0.5)" stroke="none">
<path d="M813 2526 c-374 -71 -663 -341 -765 -714 -31 -112 -31 -363 0 -476
58 -211 185 -402 352 -528 86 -65 244 -142 350 -169 129 -33 289 -36 420 -9
140 29 226 66 392 168 28 17 28 17 69 -24 35 -36 40 -44 30 -62 -15 -29 -14
-96 3 -135 8 -18 130 -147 272 -289 288 -285 296 -290 391 -267 39 10 62 26
124 88 62 62 78 85 88 124 23 95 18 103 -267 391 -142 142 -271 264 -289 272
-39 17 -106 18 -135 3 -17 -9 -26 -5 -63 31 l-43 43 39 57 c57 84 116 215 141
316 32 127 32 342 -1 464 -28 107 -104 265 -169 350 -127 167 -321 296 -528
351 -102 27 -309 34 -411 15z m332 -181 c285 -59 505 -265 597 -555 19 -64 23
-96 23 -215 0 -119 -4 -151 -23 -215 -84 -267 -275 -458 -542 -542 -64 -19
-96 -23 -215 -23 -156 0 -229 16 -355 80 -368 185 -530 628 -368 1007 100 235
309 409 557 462 87 19 239 19 326 1z"/>
<path d="M888 1873 l-3 -198 -197 -3 -198 -2 0 -95 0 -95 198 -2 197 -3 3
-197 2 -198 95 0 95 0 2 198 3 197 198 3 197 2 0 95 0 95 -197 2 -198 3 -3
198 -2 197 -95 0 -95 0 -2 -197z"/>
</g>
</svg>
